{
  "accessors": [
    {
      "bufferView": 2,
      "componentType": 5126,
      "count": 65532,
      "max": [
        11.234532356262207,
        -1.7854150533676147,
        13.39218807220459
      ],
      "min": [
        -11.277612686157227,
        -9.0266799926757812,
        -12.03193187713623
      ],
      "type": "VEC3"
    },
    {
      "bufferView": 2,
      "byteOffset": 786384,
      "componentType": 5126,
      "count": 65532,
      "max": [
        0.99999511241912842,
        0.82365715503692627,
        0.99999648332595825
      ],
      "min": [
        -0.99997121095657349,
        -0.99999964237213135,
        -0.99973011016845703
      ],
      "type": "VEC3"
    },
    {
      "bufferView": 3,
      "componentType": 5126,
      "count": 65532,
      "max": [
        0.99923485517501831,
        0.92718958854675293,
        0.99997305870056152,
        1
      ],
      "min": [
        -0.99999958276748657,
        -0.90568339824676514,
        -0.99311280250549316,
        -1
      ],
      "type": "VEC4"
    },
    {
      "bufferView": 1,
      "componentType": 5126,
      "count": 65532,
      "max": [
        0.99598699808120728,
        0.99899297952651978
      ],
      "min": [
        0.0010880000190809369,
        0.020738000050187111
      ],
      "type": "VEC2"
    },
    {
      "bufferView": 0,
      "componentType": 5125,
      "count": 368727,
      "max": [
        65531
      ],
      "min": [
        0
      ],
      "type": "SCALAR"
    },
    {
      "bufferView": 2,
      "byteOffset": 1572768,
      "componentType": 5126,
      "count": 64731,
      "max": [
        10.739992141723633,
        -1.92228102684021,
        1.2410440444946289
      ],
      "min": [
        -11.781623840332031,
        -9.2396011352539062,
        -12.105564117431641
      ],
      "type": "VEC3"
    },
    {
      "bufferView": 2,
      "byteOffset": 2349540,
      "componentType": 5126,
      "count": 64731,
      "max": [
        0.99962335824966431,
        0.84502798318862915,
        0.99980789422988892
      ],
      "min": [
        -0.9999423623085022,
        -0.99999958276748657,
        -0.99999678134918213
      ],
      "type": "VEC3"
    },
    {
      "bufferView": 3,
      "byteOffset": 1048512,
      "componentType": 5126,
      "count": 64731,
      "max": [
        0.99996978044509888,
        0.93228310346603394,
        0.99962741136550903,
        1
      ],
      "min": [
        -0.94258177280426025,
        -0.98328137397766113,
        -0.99996161460876465,
        -1
      ],
      "type": "VEC4"
    },
    {
      "bufferView": 1,
      "byteOffset": 524256,
      "componentType": 5126,
      "count": 64731,
      "max": [
        0.97017198801040649,
        0.99902302026748657
      ],
      "min": [
        0.0009970000246539712,
        0.032809998840093613
      ],
      "type": "VEC2"
    },
    {
      "bufferView": 0,
      "byteOffset": 1474908,
      "componentType": 5125,
      "count": 358287,
      "max": [
        64730
      ],
      "min": [
        0
      ],
      "type": "SCALAR"
    }
  ],
  "asset": {
    "extras": {
      "author": "MGD Films (https://sketchfab.com/magadan)",
      "license": "CC-BY-4.0 (http://creativecommons.org/licenses/by/4.0/)",
      "source": "https://sketchfab.com/models/7adf3f461f9e4b12b3a7d7a4bab546ed",
      "title": "3D Scan - Chocolate Cake"
    },
    "generator": "Sketchfab-3.18.2",
    "version": "2.0"
  },
  "bufferViews": [
    {
      "buffer": 0,
      "byteLength": 2908056,
      "byteOffset": 0,
      "name": "floatBufferViews",
      "target": 34963
    },
    {
      "buffer": 0,
      "byteLength": 1042104,
      "byteOffset": 2908056,
      "byteStride": 8,
      "name": "floatBufferViews",
      "target": 34962
    },
    {
      "buffer": 0,
      "byteLength": 3126312,
      "byteOffset": 3950160,
      "byteStride": 12,
      "name": "floatBufferViews",
      "target": 34962
    },
    {
      "buffer": 0,
      "byteLength": 2084208,
      "byteOffset": 7076472,
      "byteStride": 16,
      "name": "floatBufferViews",
      "target": 34962
    }
  ],
  "buffers": [
    {
      "byteLength": 9160680,
      "uri": "scene.bin"
    }
  ],
  "images": [
    {
      "uri": "textures/Material_0_baseColor.jpeg"
    }
  ],
  "materials": [
    {
      "doubleSided": true,
      "emissiveFactor": [
        0,
        0,
        0
      ],
      "name": "Material_0",
      "pbrMetallicRoughness": {
        "baseColorFactor": [
          1,
          1,
          1,
          1
        ],
        "baseColorTexture": {
          "index": 0,
          "texCoord": 0
        },
        "metallicFactor": 0,
        "roughnessFactor": 1
      }
    }
  ],
  "meshes": [
    {
      "primitives": [
        {
          "attributes": {
            "NORMAL": 1,
            "POSITION": 0,
            "TANGENT": 2,
            "TEXCOORD_0": 3
          },
          "indices": 4,
          "material": 0,
          "mode": 4
        }
      ]
    },
    {
      "primitives": [
        {
          "attributes": {
            "NORMAL": 6,
            "POSITION": 5,
            "TANGENT": 7,
            "TEXCOORD_0": 8
          },
          "indices": 9,
          "material": 0,
          "mode": 4
        }
      ]
    }
  ],
  "nodes": [
    {
      "children": [
        1
      ],
      "name": "RootNode (gltf orientation matrix)",
      "rotation": [
        -0.70710678118654746,
        -0,
        -0,
        0.70710678118654757
      ]
    },
    {
      "children": [
        2
      ],
      "matrix": [
        1,
        0,
        0,
        0,
        0,
        0,
        -1,
        0,
        0,
        1,
        0,
        0,
        0,
        -4.9148349761962891,
        -5.899045467376709,
        1
      ],
      "name": "RootNode (model correction matrix)"
    },
    {
      "children": [
        3,
        4
      ],
      "name": "Chocolate_cake20151203155635.obj.cleaner.gles"
    },
    {
      "mesh": 0,
      "name": ""
    },
    {
      "mesh": 1,
      "name": ""
    }
  ],
  "samplers": [
    {
      "magFilter": 9729,
      "minFilter": 9987,
      "wrapS": 10497,
      "wrapT": 10497
    }
  ],
  "scene": 0,
  "scenes": [
    {
      "name": "OSG_Scene",
      "nodes": [
        0
      ]
    }
  ],
  "textures": [
    {
      "sampler": 0,
      "source": 0
    }
  ]
}

