{
    "asset" : {
        "generator" : "Khronos glTF Blender I/O v0.9.36",
        "version" : "2.0"
    },
    "scene" : 0,
    "scenes" : [
        {
            "name" : "Scene",
            "nodes" : [
                4
            ]
        }
    ],
    "nodes" : [
        {
            "mesh" : 0,
            "name" : "Object_3"
        },
        {
            "mesh" : 1,
            "name" : "Object_4"
        },
        {
            "children" : [
                0,
                1
            ],
            "name" : "model_Pringles_20180815_173653581.obj.cleaner.materialmerger.gl"
        },
        {
            "children" : [
                2
            ],
            "name" : "RootNode (model correction matrix)"
        },
        {
            "children" : [
                3
            ],
            "name" : "RootNode (gltf orientation matrix)",
            "scale" : [
                0.009999999776482582,
                0.009999999776482582,
                0.009999999776482582
            ]
        }
    ],
    "materials" : [
        {
            "doubleSided" : true,
            "emissiveFactor" : [
                1,
                1,
                1
            ],
            "emissiveTexture" : {
                "index" : 0,
                "texCoord" : 0
            },
            "name" : "material0",
            "pbrMetallicRoughness" : {}
        }
    ],
    "meshes" : [
        {
            "name" : "Mesh_0",
            "primitives" : [
                {
                    "attributes" : {
                        "POSITION" : 0,
                        "NORMAL" : 1,
                        "TEXCOORD_0" : 2
                    },
                    "indices" : 3,
                    "material" : 0
                },
                {
                    "attributes" : {
                        "POSITION" : 4,
                        "NORMAL" : 5,
                        "TEXCOORD_0" : 6
                    },
                    "indices" : 7,
                    "material" : 0
                },
                {
                    "attributes" : {
                        "POSITION" : 8,
                        "NORMAL" : 9,
                        "TEXCOORD_0" : 10
                    },
                    "indices" : 11,
                    "material" : 0
                }
            ]
        },
        {
            "name" : "Mesh_1",
            "primitives" : [
                {
                    "attributes" : {
                        "POSITION" : 12,
                        "NORMAL" : 13,
                        "TEXCOORD_0" : 14
                    },
                    "indices" : 15,
                    "material" : 0
                }
            ]
        }
    ],
    "textures" : [
        {
            "source" : 0
        }
    ],
    "images" : [
        {
            "mimeType" : "image/png",
            "name" : "material0_baseColor",
            "uri" : "material0_baseColor.png"
        }
    ],
    "accessors" : [
        {
            "bufferView" : 0,
            "componentType" : 5126,
            "count" : 65535,
            "max" : [
                24.686309814453125,
                71.93373107910156,
                24.605379104614258
            ],
            "min" : [
                -24.686309814453125,
                -79.6875,
                -24.389820098876953
            ],
            "type" : "VEC3"
        },
        {
            "bufferView" : 1,
            "componentType" : 5126,
            "count" : 65535,
            "type" : "VEC3"
        },
        {
            "bufferView" : 2,
            "componentType" : 5126,
            "count" : 65535,
            "type" : "VEC2"
        },
        {
            "bufferView" : 3,
            "componentType" : 5123,
            "count" : 222774,
            "type" : "SCALAR"
        },
        {
            "bufferView" : 4,
            "componentType" : 5126,
            "count" : 654,
            "max" : [
                11.02029037475586,
                -18.618839263916016,
                -11.950480461120605
            ],
            "min" : [
                -20.623619079589844,
                -53.534629821777344,
                -24.039470672607422
            ],
            "type" : "VEC3"
        },
        {
            "bufferView" : 5,
            "componentType" : 5126,
            "count" : 654,
            "type" : "VEC3"
        },
        {
            "bufferView" : 6,
            "componentType" : 5126,
            "count" : 654,
            "type" : "VEC2"
        },
        {
            "bufferView" : 7,
            "componentType" : 5123,
            "count" : 2964,
            "type" : "SCALAR"
        },
        {
            "bufferView" : 8,
            "componentType" : 5126,
            "count" : 165,
            "max" : [
                10.599320411682129,
                -19.805330276489258,
                -13.03125
            ],
            "min" : [
                -19.955669403076172,
                -53.737220764160156,
                -24.025230407714844
            ],
            "type" : "VEC3"
        },
        {
            "bufferView" : 9,
            "componentType" : 5126,
            "count" : 165,
            "type" : "VEC3"
        },
        {
            "bufferView" : 10,
            "componentType" : 5126,
            "count" : 165,
            "type" : "VEC2"
        },
        {
            "bufferView" : 11,
            "componentType" : 5123,
            "count" : 447,
            "type" : "SCALAR"
        },
        {
            "bufferView" : 12,
            "componentType" : 5126,
            "count" : 64827,
            "max" : [
                24.351760864257812,
                74.92151641845703,
                24.699230194091797
            ],
            "min" : [
                -24.649219512939453,
                -67.18216705322266,
                -24.699230194091797
            ],
            "type" : "VEC3"
        },
        {
            "bufferView" : 13,
            "componentType" : 5126,
            "count" : 64827,
            "type" : "VEC3"
        },
        {
            "bufferView" : 14,
            "componentType" : 5126,
            "count" : 64827,
            "type" : "VEC2"
        },
        {
            "bufferView" : 15,
            "componentType" : 5123,
            "count" : 327687,
            "type" : "SCALAR"
        }
    ],
    "bufferViews" : [
        {
            "buffer" : 0,
            "byteLength" : 786420,
            "byteOffset" : 0
        },
        {
            "buffer" : 0,
            "byteLength" : 786420,
            "byteOffset" : 786420
        },
        {
            "buffer" : 0,
            "byteLength" : 524280,
            "byteOffset" : 1572840
        },
        {
            "buffer" : 0,
            "byteLength" : 445548,
            "byteOffset" : 2097120
        },
        {
            "buffer" : 0,
            "byteLength" : 7848,
            "byteOffset" : 2542668
        },
        {
            "buffer" : 0,
            "byteLength" : 7848,
            "byteOffset" : 2550516
        },
        {
            "buffer" : 0,
            "byteLength" : 5232,
            "byteOffset" : 2558364
        },
        {
            "buffer" : 0,
            "byteLength" : 5928,
            "byteOffset" : 2563596
        },
        {
            "buffer" : 0,
            "byteLength" : 1980,
            "byteOffset" : 2569524
        },
        {
            "buffer" : 0,
            "byteLength" : 1980,
            "byteOffset" : 2571504
        },
        {
            "buffer" : 0,
            "byteLength" : 1320,
            "byteOffset" : 2573484
        },
        {
            "buffer" : 0,
            "byteLength" : 894,
            "byteOffset" : 2574804
        },
        {
            "buffer" : 0,
            "byteLength" : 777924,
            "byteOffset" : 2575700
        },
        {
            "buffer" : 0,
            "byteLength" : 777924,
            "byteOffset" : 3353624
        },
        {
            "buffer" : 0,
            "byteLength" : 518616,
            "byteOffset" : 4131548
        },
        {
            "buffer" : 0,
            "byteLength" : 655374,
            "byteOffset" : 4650164
        }
    ],
    "buffers" : [
        {
            "byteLength" : 5305540,
            "uri" : "untitled2.bin"
        }
    ]
}
