{
  "accessors": [
    {
      "bufferView": 2,
      "componentType": 5126,
      "count": 1578,
      "max": [
        0.79698991775512695,
        0.78471297025680542,
        0.79834878444671631
      ],
      "min": [
        -0.77255111932754517,
        -0.77302861213684082,
        -0.76675200462341309
      ],
      "type": "VEC3"
    },
    {
      "bufferView": 2,
      "byteOffset": 18936,
      "componentType": 5126,
      "count": 1578,
      "max": [
        0.99799782037734985,
        0.99973547458648682,
        0.99987310171127319
      ],
      "min": [
        -0.99682819843292236,
        -0.99924308061599731,
        -1
      ],
      "type": "VEC3"
    },
    {
      "bufferView": 3,
      "componentType": 5126,
      "count": 1578,
      "max": [
        0.99997907876968384,
        0.99998325109481812,
        0.99126827716827393,
        1
      ],
      "min": [
        -0.99981105327606201,
        -0.99999701976776123,
        -0.99512296915054321,
        1
      ],
      "type": "VEC4"
    },
    {
      "bufferView": 1,
      "componentType": 5126,
      "count": 1578,
      "max": [
        0.99486362934112549,
        0.97391819953918457
      ],
      "min": [
        0.0058252811431884766,
        0.0056102871894836426
      ],
      "type": "VEC2"
    },
    {
      "bufferView": 0,
      "componentType": 5125,
      "count": 8712,
      "max": [
        1577
      ],
      "min": [
        0
      ],
      "type": "SCALAR"
    }
  ],
  "asset": {
    "extras": {
      "author": "GSXNet (https://sketchfab.com/gsxn)",
      "license": "CC-BY-NC-4.0 (http://creativecommons.org/licenses/by-nc/4.0/)",
      "source": "https://sketchfab.com/models/aab2befcee1a448caaa62b21555e2017",
      "title": "Apple 3D scan"
    },
    "generator": "Sketchfab-3.18.7",
    "version": "2.0"
  },
  "bufferViews": [
    {
      "buffer": 0,
      "byteLength": 34848,
      "byteOffset": 0,
      "name": "floatBufferViews",
      "target": 34963
    },
    {
      "buffer": 0,
      "byteLength": 12624,
      "byteOffset": 34848,
      "byteStride": 8,
      "name": "floatBufferViews",
      "target": 34962
    },
    {
      "buffer": 0,
      "byteLength": 37872,
      "byteOffset": 47472,
      "byteStride": 12,
      "name": "floatBufferViews",
      "target": 34962
    },
    {
      "buffer": 0,
      "byteLength": 25248,
      "byteOffset": 85344,
      "byteStride": 16,
      "name": "floatBufferViews",
      "target": 34962
    }
  ],
  "buffers": [
    {
      "byteLength": 110592,
      "uri": "scene.bin"
    }
  ],
  "images": [
    {
      "uri": "textures/Material_001_baseColor.png"
    }
  ],
  "materials": [
    {
      "doubleSided": true,
      "name": "Material_001",
      "pbrMetallicRoughness": {
        "baseColorFactor": [
          1,
          1,
          1,
          1
        ],
        "baseColorTexture": {
          "index": 0,
          "texCoord": 0
        },
        "metallicFactor": 0,
        "roughnessFactor": 0.59999999999999998
      }
    }
  ],
  "meshes": [
    {
      "name": "Material_001-material",
      "primitives": [
        {
          "attributes": {
            "NORMAL": 1,
            "POSITION": 0,
            "TANGENT": 2,
            "TEXCOORD_0": 3
          },
          "indices": 4,
          "material": 0,
          "mode": 4
        }
      ]
    }
  ],
  "nodes": [
    {
      "children": [
        1
      ],
      "name": "RootNode (gltf orientation matrix)",
      "rotation": [
        -0.70710678118654746,
        -0,
        -0,
        0.70710678118654757
      ]
    },
    {
      "children": [
        2
      ],
      "name": "RootNode (model correction matrix)"
    },
    {
      "children": [
        3
      ],
      "name": "Collada visual scene group"
    },
    {
      "children": [
        4
      ],
      "matrix": [
        0.4433608,
        0,
        0,
        0,
        0,
        0.4433608,
        0,
        0,
        0,
        0,
        0.4433608,
        0,
        -2.1905139999999999,
        1.751341,
        1.6846099999999999,
        1
      ],
      "name": "Cube"
    },
    {
      "mesh": 0,
      "name": "Material_001-material"
    }
  ],
  "samplers": [
    {
      "magFilter": 9729,
      "minFilter": 9987,
      "wrapS": 10497,
      "wrapT": 10497
    }
  ],
  "scene": 0,
  "scenes": [
    {
      "name": "OSG_Scene",
      "nodes": [
        0
      ]
    }
  ],
  "textures": [
    {
      "sampler": 0,
      "source": 0
    }
  ]
}

