{
  "accessors": [
    {
      "bufferView": 2,
      "componentType": 5126,
      "count": 2010,
      "max": [
        0.24282999336719513,
        0.23048999905586243,
        0.20286999642848969
      ],
      "min": [
        -0.23497000336647034,
        -0.23226000368595123,
        -0.24093000590801239
      ],
      "type": "VEC3"
    },
    {
      "bufferView": 2,
      "byteOffset": 24120,
      "componentType": 5126,
      "count": 2010,
      "max": [
        0.99887192249298096,
        0.9987761378288269,
        0.99998480081558228
      ],
      "min": [
        -0.99935942888259888,
        -0.99978476762771606,
        -0.99990254640579224
      ],
      "type": "VEC3"
    },
    {
      "bufferView": 3,
      "componentType": 5126,
      "count": 2010,
      "max": [
        0.99989688396453857,
        0.9990801215171814,
        0.86385023593902588,
        1
      ],
      "min": [
        -0.99844938516616821,
        -0.99987328052520752,
        -0.8733024001121521,
        1
      ],
      "type": "VEC4"
    },
    {
      "bufferView": 1,
      "componentType": 5126,
      "count": 2010,
      "max": [
        0.99750000238418579,
        0.72042000293731689
      ],
      "min": [
        9.0000001364387572e-05,
        0.0010199999669566751
      ],
      "type": "VEC2"
    },
    {
      "bufferView": 0,
      "componentType": 5125,
      "count": 11496,
      "max": [
        2009
      ],
      "min": [
        0
      ],
      "type": "SCALAR"
    }
  ],
  "asset": {
    "extras": {
      "author": "RemiGraphics (https://sketchfab.com/remingtongraphics)",
      "license": "CC-BY-4.0 (http://creativecommons.org/licenses/by/4.0/)",
      "source": "https://sketchfab.com/models/c6bec657b24c407b8e1dd15d376b83af",
      "title": "Apple 3D Scan (Retopologized)"
    },
    "generator": "Sketchfab-3.36.3",
    "version": "2.0"
  },
  "bufferViews": [
    {
      "buffer": 0,
      "byteLength": 45984,
      "byteOffset": 0,
      "name": "floatBufferViews",
      "target": 34963
    },
    {
      "buffer": 0,
      "byteLength": 16080,
      "byteOffset": 45984,
      "byteStride": 8,
      "name": "floatBufferViews",
      "target": 34962
    },
    {
      "buffer": 0,
      "byteLength": 48240,
      "byteOffset": 62064,
      "byteStride": 12,
      "name": "floatBufferViews",
      "target": 34962
    },
    {
      "buffer": 0,
      "byteLength": 32160,
      "byteOffset": 110304,
      "byteStride": 16,
      "name": "floatBufferViews",
      "target": 34962
    }
  ],
  "buffers": [
    {
      "byteLength": 142464,
      "uri": "scene.bin"
    }
  ],
  "images": [
    {
      "uri": "textures/Apple_metallicRoughness.png"
    },
    {
      "uri": "textures/Apple_baseColor.png"
    }
  ],
  "materials": [
    {
      "doubleSided": true,
      "name": "Apple",
      "pbrMetallicRoughness": {
        "baseColorFactor": [
          1,
          1,
          1,
          1
        ],
        "baseColorTexture": {
          "index": 1,
          "texCoord": 0
        },
        "metallicFactor": 0,
        "metallicRoughnessTexture": {
          "index": 0,
          "texCoord": 0
        },
        "roughnessFactor": 0.45000000000000001
      }
    }
  ],
  "meshes": [
    {
      "name": "Plane_0",
      "primitives": [
        {
          "attributes": {
            "NORMAL": 1,
            "POSITION": 0,
            "TANGENT": 2,
            "TEXCOORD_0": 3
          },
          "indices": 4,
          "material": 0,
          "mode": 4
        }
      ]
    }
  ],
  "nodes": [
    {
      "children": [
        1
      ],
      "name": "RootNode (gltf orientation matrix)",
      "rotation": [
        -0.70710678118654746,
        -0,
        -0,
        0.70710678118654757
      ]
    },
    {
      "children": [
        2
      ],
      "name": "RootNode (model correction matrix)"
    },
    {
      "children": [
        3
      ],
      "name": "Root"
    },
    {
      "children": [
        4
      ],
      "matrix": [
        0.5,
        0,
        0,
        0,
        0,
        0.5,
        0,
        0,
        0,
        0,
        0.5,
        0,
        0,
        0,
        0,
        1
      ],
      "name": "Plane"
    },
    {
      "mesh": 0,
      "name": "Plane_0"
    }
  ],
  "samplers": [
    {
      "magFilter": 9729,
      "minFilter": 9987,
      "wrapS": 10497,
      "wrapT": 10497
    }
  ],
  "scene": 0,
  "scenes": [
    {
      "name": "OSG_Scene",
      "nodes": [
        0
      ]
    }
  ],
  "textures": [
    {
      "sampler": 0,
      "source": 0
    },
    {
      "sampler": 0,
      "source": 1
    }
  ]
}

