{"asset":{"generator":"3D Builder","version":"2.0"},"scene":0,"scenes":[{"nodes":[0,1]}],"nodes":[{"mesh":0,"matrix":[0.094261974096298218,0,0,0,0,-1.1236902963673856E-8,-0.094261959195137024,0,0,0.094261959195137024,-1.1236902963673856E-8,0,0,7.51149845123291,2.5299773369624745E-6,1]},{"mesh":1,"matrix":[0.094261974096298218,0,0,0,0,-1.1236902963673856E-8,-0.094261959195137024,0,0,0.094261959195137024,-1.1236902963673856E-8,0,0,7.51149845123291,2.5299773369624745E-6,1]}],"meshes":[{"primitives":[{"attributes":{"POSITION":0,"TEXCOORD_0":1},"mode":4,"indices":2,"material":0}]},{"primitives":[{"attributes":{"POSITION":3,"TEXCOORD_0":4},"mode":4,"indices":5,"material":0}]}],"materials":[{"pbrMetallicRoughness":{"baseColorFactor":[1,1,1,1],"metallicFactor":0,"roughnessFactor":1,"baseColorTexture":{"index":0,"texCoord":0}},"alphaMode":"OPAQUE"}],"textures":[{"source":0,"sampler":0}],"images":[{"uri":"material0_baseColor.jpeg"}],"samplers":[{"magFilter":9729,"wrapS":10497,"wrapT":10497}],"accessors":[{"bufferView":0,"byteOffset":0,"count":65532,"componentType":5126,"type":"VEC3","min":[-24.686309814453125,-24.605361938476563,-79.687484741210938],"max":[24.686309814453125,24.389829635620117,71.9337158203125]},{"bufferView":1,"byteOffset":0,"count":65532,"componentType":5126,"type":"VEC2"},{"bufferView":2,"byteOffset":0,"count":226185,"componentType":5125,"type":"SCALAR"},{"bufferView":3,"byteOffset":0,"count":62585,"componentType":5126,"type":"VEC3","min":[-24.649219512939453,-24.699239730834961,-67.1821517944336],"max":[24.351760864257813,24.6992130279541,74.921501159667969]},{"bufferView":4,"byteOffset":0,"count":62585,"componentType":5126,"type":"VEC2"},{"bufferView":5,"byteOffset":0,"count":327687,"componentType":5125,"type":"SCALAR"}],"bufferViews":[{"buffer":0,"byteOffset":0,"byteLength":786384,"byteStride":12,"target":34962},{"buffer":0,"byteOffset":786384,"byteLength":524256,"byteStride":8,"target":34962},{"buffer":0,"byteOffset":1310640,"byteLength":904740,"target":34963},{"buffer":0,"byteOffset":2215380,"byteLength":751020,"byteStride":12,"target":34962},{"buffer":0,"byteOffset":2966400,"byteLength":500680,"byteStride":8,"target":34962},{"buffer":0,"byteOffset":3467080,"byteLength":1310748,"target":34963}],"buffers":[{"byteLength":4777828,"uri":"prings.bin"}]}