{"asset":{"generator":"3D Builder","version":"2.0"},"scene":0,"scenes":[{"nodes":[0]}],"nodes":[{"mesh":0,"matrix":[0.24260778725147247,0,0,0,0,-2.8921101957735118E-8,-0.24260775744915009,0,0,0.24260775744915009,-2.8921101957735118E-8,0,-6.7405358095129486E-6,1.4569759515612596E-13,1.2221998986206017E-6,1]}],"meshes":[{"primitives":[{"attributes":{"POSITION":0,"TEXCOORD_0":2},"mode":4,"indices":4,"material":0},{"attributes":{"POSITION":1,"TEXCOORD_0":3},"mode":4,"indices":5,"material":0}]}],"materials":[{"pbrMetallicRoughness":{"baseColorFactor":[1,1,1,1],"metallicFactor":0,"roughnessFactor":1,"baseColorTexture":{"index":0,"texCoord":0}},"alphaMode":"OPAQUE"}],"textures":[{"source":0,"sampler":0}],"images":[{"uri":"material0_baseColor.jpeg"}],"samplers":[{"magFilter":9729,"wrapS":10497,"wrapT":10497}],"accessors":[{"bufferView":0,"byteOffset":0,"count":65533,"componentType":5126,"type":"VEC3","min":[-0.32893887162208557,-0.32789024710655212,0],"max":[0.32892116904258728,0.32494059205055237,2.0203158855438232]},{"bufferView":0,"byteOffset":786396,"count":62594,"componentType":5126,"type":"VEC3","min":[-0.32848167419433594,-0.32910946011543274,0.16662400960922241],"max":[0.32445076107978821,0.32910618185997009,2.0600924491882324]},{"bufferView":1,"byteOffset":0,"count":65533,"componentType":5126,"type":"VEC2"},{"bufferView":1,"byteOffset":524264,"count":62594,"componentType":5126,"type":"VEC2"},{"bufferView":2,"byteOffset":0,"count":226185,"componentType":5125,"type":"SCALAR"},{"bufferView":2,"byteOffset":904740,"count":327687,"componentType":5125,"type":"SCALAR"}],"bufferViews":[{"buffer":0,"byteOffset":0,"byteLength":1537524,"byteStride":12,"target":34962},{"buffer":0,"byteOffset":1537524,"byteLength":1025016,"byteStride":8,"target":34962},{"buffer":0,"byteOffset":2562540,"byteLength":2215488,"target":34963}],"buffers":[{"byteLength":4778028,"uri":"scene.bin"}]}